<?xml version="1.0" encoding="utf-8"?>
<!-- Generator: Adobe Illustrator 16.0.0, SVG Export Plug-In . SVG Version: 6.00 Build 0)  -->
<!DOCTYPE svg PUBLIC "-//W3C//DTD SVG 1.1//EN" "http://www.w3.org/Graphics/SVG/1.1/DTD/svg11.dtd">
<svg version="1.1" id="Layer_1" xmlns="http://www.w3.org/2000/svg" xmlns:xlink="http://www.w3.org/1999/xlink" x="0px" y="0px"
	 width="2834.6504px" height="2834.6504px" viewBox="0 0 2834.6504 2834.6504" enable-background="new 0 0 2834.6504 2834.6504"
	 xml:space="preserve">
<path fill-rule="evenodd" clip-rule="evenodd" fill="#FBB040" d="M337.5186,97.79h11.9004v359.999h-12.5l0.25,20.9678H116.5684
	c-5.5645-0.0947-23.1499-7.0059-23.1499-24.25v-354.25c0-17.4551,18.9131-23.25,23.3999-23.25h220.7002V97.79z"/>
<path fill-rule="evenodd" clip-rule="evenodd" fill="#FBB040" d="M384.8193,77.0068h220.7002c4.4863,0,23.4004,5.7949,23.4004,23.25
	v354.25c0,17.2441-17.5859,24.1553-23.1504,24.25H385.1689l0.25-20.9678h-12.5V97.79h11.9004V77.0068z"/>
<path fill-rule="evenodd" clip-rule="evenodd" fill="#F15A29" d="M473.5488,280.7158v22.6777h22.6777v-22.6777H473.5488z
	 M501.8555,280.7158v22.6777h22.6777v-22.6777H501.8555z M473.5488,252.3701v22.6772h22.6777v-22.6772H473.5488z M501.8555,252.3701
	v22.6772h22.6777v-22.6772H501.8555z"/>
<path fill="#F15A29" d="M161.7085,214.2363c-0.4541-0.1699-0.8828,0.0273-1.2861,0.5938c-1.2935,1.7729-2.4219,3.0493-3.3843,3.8354
	c-0.9595,0.7866-2.1548,1.1929-3.5889,1.2212c-1.8325,0.0366-3.2368-1.0679-4.2163-3.3164
	c-0.582-1.3398-0.8857-2.7383-0.9141-4.1948c-0.0835-4.1025,0.7129-7.8843,2.3877-11.3384
	c0.6958-1.3994,1.5005-2.6602,2.4106-3.7764c3.5942-5.2041,5.9849-8.8496,7.166-10.9336c1.187-2.0869,1.769-3.6069,1.749-4.561
	c-0.0654-1.5288-1.1245-2.2812-3.1812-2.2583c-1.4541,0.0293-2.7754,1.2446-3.9707,3.6465
	c-1.7134,3.3291-4.0859,9.8506-7.1206,19.5635l-0.2432,0.7866c-0.9409,3.0464-1.3838,5.9624-1.3271,8.752
	c0.1309,6.3726,2.7769,9.5054,7.9414,9.4004c1.7476-0.0356,3.5703-0.6772,5.4712-1.9224c1.9019-1.2446,2.8389-2.7124,2.8032-4.4048
	C162.394,214.7534,162.1602,214.3896,161.7085,214.2363z M190.8867,213.6431c-0.4541-0.1704-0.8813,0.0269-1.2861,0.5933
	c-1.2944,1.7734-2.4204,3.0498-3.3813,3.8359c-0.9624,0.7866-2.1592,1.1924-3.5903,1.2207
	c-1.8325,0.0371-3.2363-1.0674-4.2158-3.3159c-0.582-1.3403-0.8877-2.7388-0.9189-4.1948
	c-0.082-4.1025,0.7144-7.8848,2.3882-11.3384c0.7012-1.3999,1.5044-2.6606,2.416-3.7764c3.5903-5.2041,5.9795-8.8496,7.1631-10.9336
	c1.1855-2.0869,1.769-3.6069,1.7505-4.561c-0.0693-1.5288-1.1284-2.2812-3.1841-2.2588c-1.4507,0.0298-2.7769,1.2451-3.9692,3.647
	c-1.6455,3.1987-3.9067,9.3765-6.7729,18.4678c-0.4502,0.6772-0.9951,1.4492-1.6582,2.3452
	c-2.1831,2.9385-3.8003,4.4189-4.8491,4.4404c-0.2939-0.0117-0.4556-0.3809-0.4854-1.1016
	c-0.043-2.0771,0.9692-6.9023,3.042-14.4771c0.0342-0.1279,0.1533-0.395,0.3462-0.7979c0.1963-0.4062,0.2925-0.6958,0.2886-0.8687
	c-0.0044-0.1709-0.1353-0.375-0.3877-0.6079c-0.2544-0.23-0.5933-0.3433-1.0137-0.335c-0.4229,0.0098-0.7637,0.1616-1.0249,0.4556
	c-0.2612,0.2954-0.5137,0.4443-0.7554,0.4502l-1.5303-0.1875c-1.6211,0.0908-3.2964,1.0674-5.0283,2.9385
	c-2.1943,2.4033-4.1353,5.8008-5.8159,10.1914c-1.0391,2.7227-1.5488,4.4561-1.5244,5.2041
	c0.0239,0.7451,0.1533,1.3135,0.3843,1.7036c0.5029,0.8022,1.2837,1.1909,2.3428,1.1685c0.2168-0.02,0.4741-0.1191,0.769-0.2925
	c0.937-0.5879,2.5327-2.6318,4.7871-6.1299s3.5659-5.5366,3.9409-6.1187c-0.0967,0.416-0.3438,1.4878-0.7471,3.2168
	c-0.4014,1.7324-0.5889,3.1802-0.5649,4.3457c0.0454,2.2881,0.873,3.417,2.4785,3.3857c1.6924-0.0356,3.603-1.4937,5.7212-4.3555
	c-0.4526,2.0825-0.6729,4.104-0.6333,6.0605c0.1279,6.3721,2.7798,9.5054,7.9443,9.4004c1.7432-0.0356,3.5688-0.6772,5.4712-1.9224
	c1.8979-1.2446,2.8335-2.7124,2.7993-4.4048C191.5713,214.1602,191.3384,213.7964,190.8867,213.6431z M160.4424,208.0781
	c0.0396-3.1201,1.022-6.2915,2.9526-9.521c1.9805-3.3179,4.3384-5.2485,7.0811-5.7891
	C167.6128,197.4854,164.2695,202.5889,160.4424,208.0781z M207.1582,197.0098c-0.0342,0.0186-0.0767,0.0269-0.1279,0.0283
	c-0.2568,0.0596-0.5962,0.5469-1.0161,1.458c-0.4204,0.9131-1.3599,2.3525-2.8223,4.3169c-2.1821,2.937-3.7988,4.4194-4.8491,4.4404
	c-0.2925-0.0112-0.4546-0.3789-0.4858-1.1001c-0.0425-2.0781,0.9712-6.9048,3.041-14.4785
	c0.0366-0.1279,0.1548-0.3945,0.3491-0.7988c0.1958-0.4048,0.2925-0.6943,0.2881-0.8677c-0.0044-0.1719-0.1348-0.3745-0.3877-0.606
	c-0.2539-0.2329-0.5933-0.3438-1.0132-0.335c-0.4263,0.0083-0.7642,0.1602-1.0254,0.4541
	c-0.2607,0.2949-0.5137,0.4458-0.7534,0.4502l-1.5317-0.1865c-1.6211,0.0884-3.2993,1.0664-5.0269,2.9375
	c-2.2007,2.4033-4.1367,5.8018-5.8174,10.1914c-1.042,2.7227-1.5503,4.4546-1.5249,5.2041c0.0244,0.7451,0.1533,1.313,0.3848,1.7036
	c0.5024,0.8018,1.2832,1.1909,2.3423,1.1694c0.2173-0.0225,0.4741-0.1191,0.7695-0.292c0.937-0.5908,2.5327-2.6338,4.7866-6.1299
	c2.2529-3.4995,3.5649-5.5381,3.9409-6.1187c-0.0967,0.4146-0.3447,1.4878-0.748,3.2168c-0.4033,1.7305-0.5918,3.1782-0.5664,4.3442
	c0.0454,2.2881,0.8716,3.418,2.48,3.3838c2.2246-0.0439,4.811-2.521,7.7607-7.4287c1.3857-2.2896,2.0713-3.7573,2.0586-4.4033
	C207.6411,197.2241,207.4692,197.0396,207.1582,197.0098z M188.0078,207.5176c0.04-3.1187,1.022-6.2915,2.9526-9.5215
	c1.9761-3.3188,4.3384-5.2495,7.0811-5.7891C195.1782,196.9248,191.835,202.0283,188.0078,207.5176z M247.0688,214.3472
	c-0.04,0.0571-0.145,0.1665-0.3052,0.3267c-0.165,0.1592-0.8335,0.8774-2.0059,2.1562c-1.1772,1.2778-2.2886,2.3086-3.332,3.0918
	c-1.0464,0.7822-1.9888,1.1826-2.8208,1.1997c-0.8315,0.0171-1.3174-0.271-1.4595-0.8657c-0.0454-0.2559-0.0791-0.8462-0.0991-1.772
	c-0.0171-0.9268,0.186-2.2202,0.6104-3.8813c1.2949-0.9253,2.561-2.1548,3.8003-3.6904c1.2393-1.5361,2.1338-2.8848,2.6831-4.0503
	c0.0811-0.2881,0.1162-0.4941,0.1147-0.6216c-0.0181-0.8564-0.4683-1.4653-1.3599-1.833c-0.3774-0.1489-0.7383-0.2197-1.0889-0.2129
	c-0.7666,0.0156-1.4946,0.4854-2.189,1.4141c-1.5728,1.8965-2.7183,4.0044-3.4453,6.3198c-0.125,0.396-0.2241,0.7524-0.3237,1.1172
	c-1.604,3.3545-2.7993,5.5366-3.5757,6.5132c-0.9087,1.147-1.5845,1.7246-2.0259,1.7334c-0.2554-0.0229-0.3945-0.4844-0.4116-1.3843
	c-0.0454-2.2271,0.3237-5.1489,1.1069-8.7642c0.311-1.4922,0.564-2.5117,0.75-3.0566c0.1899-0.5479,0.2837-0.8999,0.2808-1.0562
	c-0.041-0.5708-0.3462-0.8545-0.9199-0.8491c-0.5708,0.0029-0.9937,0.145-1.2749,0.4219l-0.3989,0.4355
	c-0.2085,0.2329-0.5718,0.6699-1.0859,1.3076c-0.5137,0.6528-0.7808,0.9883-0.792,1.002
	c2.5752-6.6934,4.3853-11.0171,5.4316-12.9648l0.292-0.521c0.0781-0.1733,0.1221-0.3306,0.1196-0.4741
	c-0.0088-0.3989-0.3169-0.6714-0.9185-0.8164c-0.2158-0.0537-0.4302-0.0767-0.646-0.0708
	c-0.6392,0.0254-1.0078,0.2412-1.0986,0.6416c-0.2446,1.3203-1.2637,4.1108-3.0581,8.3755
	c-1.7856,4.2661-3.3872,8.3984-4.791,12.396c-0.6885,1.9634-1.2051,3.4751-1.5503,4.5454c-0.6714,0.7866-1.2847,1.4082-1.8271,1.833
	c-0.7979,0.623-1.7944,0.9482-2.9839,0.9722c-1.5376,0.0312-2.71-0.8447-3.522-2.6235c-0.4697-1.0586-0.7124-2.166-0.7368-3.3218
	c0.0625-2.3223,1.2183-6.4023,3.458-12.228c0.5381-1.3164,0.9229-2.3242,1.1631-3.0239c3.2549-0.606,6.0771-0.9653,8.4692-1.0732
	c0.8062-0.0312,1.2134-0.2061,1.2222-0.5225c-0.0254-0.4771-0.1309-0.853-0.3223-1.1313c-0.1943-0.2769-0.3706-0.4146-0.5298-0.4102
	l-7.731,0.3276c0.7466-1.9517,1.4468-3.3486,2.1055-4.189c0.1958-0.2471,0.7109-0.8135,1.5542-1.6982
	c0.8379-0.8867,1.2563-1.54,1.248-1.9619c-0.0088-0.4199-0.439-0.7124-1.2876-0.8813c-0.2271-0.0513-0.4287-0.0752-0.6021-0.0723
	c-0.4302,0.0083-0.897,0.4614-1.4082,1.3569l-4.4375,7.8208l-6.9517,0.7666c-0.314,0.061-0.4756,0.1973-0.4873,0.4019
	c0.0283,0.6455,0.5806,1.0674,1.6499,1.2661c0.3521,0.0679,2.0171,0.0708,5.0068,0.0112c-0.291,0.791-0.8789,2.4019-1.7617,4.8325
	c-0.8887,2.4316-1.4907,4.4585-1.8174,6.0825c-0.3262,1.624-0.4727,3.1445-0.4429,4.5615c0.043,2.1094,0.71,3.7832,1.9961,5.0283
	c1.2905,1.2402,2.8052,1.8438,4.54,1.8086c1.7334-0.0342,3.3442-0.5059,4.8462-1.4111c0.1875-0.1138,0.3296-0.2417,0.4941-0.3623
	c0.125-0.061,0.2529-0.1147,0.3721-0.2056c0.0225-0.0244,0.0566-0.0938,0.082-0.1279c0.8521-0.7607,1.2734-1.6353,1.2524-2.6265
	c0-0.0864-0.04-0.1416-0.0571-0.2183c0.0967-0.2798,0.1904-0.5337,0.2925-0.8521c0.7271-2.186,1.4365-3.8584,2.1265-5.0137
	c0.7085-1.1572,1.5107-1.8955,2.4194-2.2148c-0.5425,3.4258-0.7954,6.0674-0.7583,7.9214c0.0708,2.2573,0.8037,3.376,2.189,3.3647
	c0.9429-0.02,2.1265-0.8662,3.5562-2.5386c0.5693-0.6646,1.0659-1.354,1.5205-2.0557c0.1533,1.8257,0.6914,3.1602,1.665,3.937
	c0.5903,0.4624,1.2959,0.6855,2.1138,0.6685c1.7319-0.0342,3.7021-1.2354,5.9058-3.6001c1.3911-1.4893,2.4189-2.8906,3.0801-4.208
	c0.2188-0.4341,0.3267-0.7437,0.3223-0.9297C248.1689,213.4219,247.7715,213.5625,247.0688,214.3472z M239.9365,208.7852
	c0.8833-1.3569,1.4678-2.1802,1.749-2.4727c0.0752,0.126,0.1108,0.2397,0.1138,0.3389c0.0142,0.6704-0.4404,1.606-1.3628,2.8066
	c-0.9199,1.2026-1.5303,1.8271-1.813,1.8755C238.6162,210.9912,239.0537,210.1426,239.9365,208.7852z M280.6509,188.5762
	c-0.3521-0.2729-0.7725-0.4033-1.2593-0.3936c-0.7949,0.0342-1.563,0.8389-2.2954,2.418c-1.2749,2.856-2.3936,6.2314-3.3491,10.124
	c-0.9551,3.8926-1.4165,6.4722-1.3911,7.7397c0.2046,1.522,0.8716,2.334,2.0029,2.4331c0.9199-0.0181,2.1152-1.1367,3.5806-3.3555
	l0.3521-0.5537c2.3579-3.4512,3.4707-8.5889,3.3315-15.4111C281.5933,190.0835,281.2695,189.083,280.6509,188.5762z
	 M278.2925,201.8438c-1.4805,3.1641-2.5864,4.7539-3.3174,4.7695c-0.1392,0.0029-0.2173-0.3774-0.2329-1.1416
	c-0.0142-0.7637,0.6221-3.2588,1.9082-7.4893c1.2832-4.2295,2.3608-6.4224,3.228-6.5786c0.3477,0.0098,0.5293,0.606,0.5537,1.7856
	C280.4858,195.7944,279.7734,198.6777,278.2925,201.8438z M301.2915,193.4805c-0.1816-0.0908-0.3691-0.1348-0.5591-0.1304
	c-0.1904,0.0044-0.2983,0.0156-0.3125,0.0327c0.1162-1.0078,0.3892-1.6411,0.8203-1.8911
	c-1.0518-1.1953-2.1064-1.7915-3.1626-1.7871c-1.062,0.0044-3.2554,1.2905-6.5928,3.8599l-4.666,3.6367
	c-2.0327,1.5703-3.4766,2.8579-4.3213,3.8657c-1.1001,1.3955-1.0532,2.4634,0.1421,3.2012
	c0.6118,0.3691,1.1313,0.5508,1.5488,0.5425c1.3198-0.0254,2.9556-0.6206,4.9116-1.7803c1.9546-1.1611,3.2227-1.877,3.8003-2.1494
	c0.5747-0.271,1.106-0.4087,1.5913-0.4102c0.4883,0,0.7437,0.1377,0.7637,0.416c0,0.0684-0.0566,0.5396-0.1758,1.4082l0.0015,0.0796
	c-1.126,6.2573-2.1709,11.0542-3.1348,14.3916c-0.9668,3.3364-2.1465,6.167-3.542,8.4863
	c-0.7534,1.2666-1.7373,2.2842-2.9556,3.0566c-0.585,0.3589-1.1143,0.6001-1.5869,0.7227c-0.48,0.1221-0.7212,0.2524-0.7383,0.3916
	c0.0088,0.3662,0.3945,0.541,1.1582,0.5254c1.5957-0.0327,3.332-0.9897,5.2017-2.8677c0.8335-0.8687,1.5376-1.7603,2.1094-2.6748
	c1.8853-3.0771,3.6143-8.4805,5.1929-16.2041c0.7427-3.6475,1.2495-6.8159,1.5278-9.5146c0.3521-0.5801,0.8955-1.2109,1.6265-1.895
	c0.7324-0.6841,1.2227-1.0288,1.4678-1.0332c0.1367-0.02,0.1963-0.3804,0.1821-1.0845S301.4761,193.5742,301.2915,193.4805z
	 M295.1733,196.9004l-0.7441,0.46c-0.3438,0.2158-0.5806,0.3491-0.7212,0.4062c-0.1362,0.0708-0.9312,0.5449-2.3794,1.4136
	c-1.4521,0.873-2.436,1.3149-2.958,1.3262c-0.1904-0.0327-0.2969-0.1265-0.3184-0.2812c0.0713-0.8003,1.4297-2.1221,4.0771-3.9634
	c2.6436-1.8442,4.7188-3.0762,6.2178-3.6968c0.0684-0.0366,0.1621-0.0552,0.2827-0.0581c0.416-0.0088,0.7622,0.2812,1.0332,0.8643
	C299.5371,194.0527,298.042,195.228,295.1733,196.9004z M261.1343,187.1025l-1.6396-0.7607
	c0.376-2.7275,1.6138-4.5205,3.7163-5.3818c0.666-0.2544,1.377-0.3877,2.1211-0.4033c2.0684-0.0425,3.8994,0.7026,5.4966,2.2329
	c1.5942,1.5078,2.4116,3.2256,2.4517,5.1504c0.0752,2.5015-0.396,5.3989-1.4141,8.6909
	c-2.439,7.8247-6.8809,15.4707-13.3242,22.9434l-2.4331,2.6831c-0.9229,0.8628-1.5503,1.3203-1.8867,1.374
	c-1.0352-0.0015-2.0542-0.9795-3.0566-2.9326c0.2954-0.8975,1.7632-5.9312,4.4053-15.1074
	C258.2095,196.4165,260.0664,190.2539,261.1343,187.1025z M264.2939,184.6211c0.0415,1.9961-0.291,4.2588-0.999,6.7881
	c-0.7056,2.5283-1.21,4.333-1.5107,5.4092c-0.3037,1.0771-1.1753,3.8936-2.6118,8.4463c-1.437,4.5542-2.4932,8.3188-3.1802,11.293
	c1.8115-1.9863,3.5801-4.3569,5.3066-7.1108c0.0908-0.1475,0.1729-0.2695,0.2441-0.3662c5.3135-8.604,7.8955-16.6348,7.7422-24.0918
	c-0.0166-0.8418-0.2568-1.3306-0.7168-1.4653c-0.146-0.021-0.2881-0.0312-0.4331-0.0283
	C266.6191,183.5508,265.3403,183.9253,264.2939,184.6211z M177.1104,348.6367c0,2.6123,0.5151,5.1279,1.5479,7.5479
	c1.7422,4.0645,4.3223,6.0967,7.7422,6.0967c2.6768,0,4.9268-0.6855,6.75-2.0557c1.8218-1.3721,3.9751-3.6221,6.459-6.75
	c0.7744-1,1.5796-1.3398,2.4189-1.0156c0.8389,0.2891,1.2583,0.9512,1.2583,1.9824c0,3.0332-1.7988,5.6289-5.3945,7.791
	c-3.5972,2.1602-7.0244,3.2412-10.2822,3.2412c-9.645,0-14.4673-5.71-14.4673-17.1279c0-5,0.9355-10.209,2.8062-15.6289
	l0.4839-1.4023c6.0322-17.291,10.709-28.8867,14.0317-34.7891c2.3223-4.2588,4.8384-6.3877,7.5488-6.3877
	c3.8374,0.0322,5.7896,1.4209,5.854,4.1611c0,1.71-1.145,4.4121-3.4351,8.1055c-2.291,3.6934-6.8877,10.1367-13.79,19.3301
	c-1.7417,1.9668-3.2905,4.1934-4.6445,6.6758C178.7388,334.54,177.1104,341.2822,177.1104,348.6367z M186.0132,316.3154
	c0.4839-0.0312,2.7168-3.5234,6.7012-10.4756c3.9834-6.9502,5.959-10.5479,5.9277-10.79c-0.0332-0.2422-0.1621-0.3701-0.3872-0.3867
	c-0.2261-0.0156-0.3716,0.0078-0.4355,0.0723c-1.0649,0.6465-3.3145,4.0723-6.7495,10.2822
	c-3.436,6.21-5.1538,9.8945-5.1538,11.0557C185.916,316.1709,185.9482,316.251,186.0132,316.3154z M217.7451,314.373
	c1.4585,0,2.2271,0.417,2.3052,1.251c0,0.2598-0.4951,2.2402-1.4849,5.9385l-1.8359,6.6025
	c-0.3911,1.4854-0.8926,3.9414-1.5044,7.3652c-0.6123,3.4258-1.2441,6.5586-1.895,9.3975
	c-2.605,11.3047-5.353,19.2373-8.2446,23.7959c-0.8594,1.3535-1.9277,2.6562-3.2036,3.9062
	c-2.8398,2.8125-5.4702,4.2207-7.8926,4.2207c-1.146,0-1.7192-0.2734-1.7192-0.8203c0.0259-0.209,0.3906-0.3984,1.0938-0.5684
	c0.7036-0.168,1.4722-0.4883,2.3052-0.957c2.3447-1.4062,4.1284-3.334,5.353-5.7812c4.897-8.3623,8.4399-20.4492,10.6279-36.2598
	c-0.7559,2.3184-2.2993,5.3467-4.6304,9.084c-2.3315,3.7383-4.4868,5.6074-6.4663,5.6074c-1.0684,0-1.5894-1.0684-1.563-3.2041
	c0.0781-6.6943,2.3701-16.1377,6.877-28.3271c0.1816-0.4951,0.3516-0.9121,0.5078-1.251c0.3906-0.833,0.814-1.25,1.27-1.25
	c0.4551,0,0.8525,0.0391,1.1914,0.1172c1.3545,0.2861,2.0449,0.834,2.0708,1.6416c0,0.1816-0.1821,0.8203-0.5469,1.9141
	l-1.9146,5.5869c-3.0474,8.8057-4.8711,14.9785-5.4702,18.5205c1.771-2.709,4.2134-7.1367,7.3262-13.2852
	c3.1123-6.1465,4.7993-9.4678,5.0601-9.9629c0.3125-0.4941,0.5469-0.9512,0.7031-1.3672l0.3125-0.8203
	C216.6899,314.7383,217.1455,314.373,217.7451,314.373z M251.1943,331.1885c0,1.3037-1.4844,3.6992-4.4541,7.1895
	c-2.9692,3.4912-5.1904,5.79-6.6616,6.8965c-1.4722,1.1074-2.9502,1.6611-4.4351,1.6611c-2.7612-0.0264-4.1416-2.2139-4.1416-6.5645
	c0-2.0576,0.4165-5.2803,1.2505-9.6709c0.833-4.3887,1.2759-6.7783,1.3286-7.1699c-2.7617,0.9121-5.4058,4.377-7.9321,10.3945
	c-0.521,1.2754-1.3545,3.4512-2.5005,6.5244c-1.1201,3.0479-1.9146,4.8584-2.3833,5.4307
	c-0.5732,0.6777-1.3286,1.0166-2.2661,1.0166c-0.938,0-1.4194-0.3389-1.4458-1.0166c0-1.25,4.1807-11.6172,12.542-31.1016
	c1.3022-3.0723,2.0576-4.792,2.2666-5.1572c0.4424-0.8594,1.3672-0.8203,2.7739,0.1172c0.4165,0.2871,0.6313,0.5732,0.6445,0.8604
	c0.0132,0.2861-0.189,0.7422-0.6055,1.3672c-0.9639,1.5107-1.8237,3.2695-2.5786,5.2744l-1.4849,3.8682l1.2505-1.5234
	c1.1196-1.3809,2.0181-2.4297,2.6958-3.1455c0.6772-0.7158,1.2437-1.1201,1.6997-1.2119c0.4556-0.0898,0.9312-0.1367,1.4263-0.1367
	c1.0674,0.0781,1.6274,0.6523,1.6802,1.7197c0,0.5215-0.1826,1.2246-0.5474,2.1104c-1.6411,3.7773-2.9048,9.4941-3.79,17.1523
	c-0.2344,2.1875-0.3452,4.1094-0.332,5.7637c0.0127,1.6543,0.4102,2.4941,1.1919,2.5195c1.0938,0,3.0864-1.6992,5.978-5.0986
	c2.8911-3.3994,4.9751-6.2188,6.2515-8.46c0.3384-0.5469,0.8208-0.833,1.4458-0.8594
	C250.7124,330.0947,251.0903,330.5127,251.1943,331.1885z M203.7456,269.0371c0,2.1162,1.2798,3.1738,3.8398,3.1738
	c1.7446,0,3.6201-0.7158,5.6255-2.1484l1.1255-0.8545c1.2876-0.9766,2.1313-1.522,2.5312-1.6357
	c0.3994-0.1138,0.7007-0.1665,0.9048-0.1587c0.2041,0.0088,0.3062,0.2163,0.3062,0.6226c0,1.1821-0.9785,2.397-2.9351,3.644
	c-2.7397,1.7402-5.4141,2.6099-8.0225,2.6099c-1.957,0-3.4819-0.6655-4.5742-1.9971c-0.7666-0.9531-1.1494-2.0791-1.1494-3.3774
	c0-3.9062,1.9238-7.6826,5.7725-11.3286c1.3042-1.2368,3.1304-2.7183,5.4785-4.4438c-0.0654-0.4229-0.0977-0.7319-0.0977-0.9272
	c0-1.7905,0.5181-3.418,1.5552-4.8828c1.0376-1.4648,2.27-2.1978,3.6982-2.1978c1.4277,0,2.271,0.2485,2.5288,0.7451
	c0.2578,0.4961,0.3867,1.1108,0.3867,1.8428c0,1.4648-0.7817,2.9136-2.3457,4.3457c-0.3257,0.2935-0.8594,0.7407-1.6006,1.3433
	c-0.7412,0.6021-1.2759,1.0581-1.6035,1.3667l0.5889,2.0996c1.0972,4.0044,1.9683,6.6411,2.6152,7.9106
	c0.646,1.2695,1.1606,2.1079,1.5439,2.5146c0.3833,0.4072,0.9375,0.7446,1.6636,1.0137c0.7251,0.2686,1.1328,0.5205,1.2227,0.7563
	c0.0894,0.2363,0.1348,0.4355,0.1348,0.5981c0,0.5537-0.2446,0.9199-0.7339,1.0991c-0.1309,0.0488-0.2612,0.0728-0.3916,0.0728
	c-0.7173,0-1.5815-0.6997-2.5923-2.0996c-0.0327-0.0483-0.0566-0.0811-0.0728-0.0977c-2.751-3.6616-4.7427-7.9019-5.9746-12.7197
	c-1.9541,0.9116-3.8105,2.3682-5.5693,4.3701C205.0317,263.2266,203.7456,266.1406,203.7456,269.0371z M214.8989,252.4839
	c0.1802-0.2437,0.8203-0.9517,1.9204-2.124c1.2144-1.3018,1.8218-2.4409,1.8218-3.4175c0-0.0161-0.0249-0.2441-0.0737-0.6841
	c-1.1328,0.7495-2.0273,1.7461-2.6836,2.9912C215.2271,250.4946,214.8989,251.5728,214.8989,252.4839z"/>
<path fill-rule="evenodd" clip-rule="evenodd" fill="#FBB040" d="M337.5771,553.8867h11.9004v359.999h-12.5l0.25,20.9678H116.627
	c-5.5645-0.0947-23.1499-7.0059-23.1499-24.25v-354.25c0-17.4551,18.9131-23.25,23.3999-23.25h220.7002V553.8867z"/>
<path fill-rule="evenodd" clip-rule="evenodd" fill="#FBB040" d="M384.8779,533.1035h220.7002
	c4.4863,0,23.4004,5.7949,23.4004,23.25v354.25c0,17.2441-17.5859,24.1553-23.1504,24.25H385.2275l0.25-20.9678h-12.5v-359.999
	h11.9004V533.1035z M473.6074,736.8125v22.6777h22.6777v-22.6777H473.6074z M501.9141,736.8125v22.6777h22.6777v-22.6777H501.9141z
	 M473.6074,708.4668v22.6768h22.6777v-22.6768H473.6074z M501.9141,708.4668v22.6768h22.6777v-22.6768H501.9141z"/>
<rect fill="none" width="2834.6504" height="2834.6504"/>
</svg>
